<?xml version="1.0" encoding="UTF-8"?>
<svg id="Calque_1" data-name="Calque 1" xmlns="http://www.w3.org/2000/svg" viewBox="0 0 40 40">
  <defs>
    <style>
      .cls-1 {
        fill: #fff;
        fill-rule: evenodd;
      }
    </style>
  </defs>
  <path class="cls-1" d="M12.94,9.18l-2.44-4.42c-.36-.65-1.03-1.05-1.75-1.05H2.83l6.42,12.13,2,3.6L1.91,36.29h6.22c.72,0,1.39-.4,1.75-1.05,8.41-15.21,8.29-15.59,17.1-31.48h-7.38l-4.66,9.03-2-3.6Z"/>
  <path class="cls-1" d="M27.08,30.86l2.26,4.3c.35.67,1.03,1.09,1.77,1.09h6.23l-6.56-12.05-1.99-3.59s0-.02,0-.03L38.08,3.8s0-.05-.03-.05h-6.16c-.72,0-1.39.4-1.75,1.05-8.4,15.19-8.29,15.59-17.07,31.43-.01.02,0,.05.02.05.6,0,6.18,0,7.18,0,.09,0,.18-.05.23-.14l4.56-8.84s.04-.02.05,0l1.97,3.55Z"/>
</svg>